<?xml version="1.0" encoding="UTF-8"?>
<svg viewBox="0 0 103.217 103.217" height="390.111" width="390.111" xmlns="http://www.w3.org/2000/svg" data-type="color">
    <g>
        <path fill="#0000ff" d="M103.217 0v103.217H0V0h103.217z" data-color="1"/>
        <path fill="#ffff00" d="M93.768 51.608c0 23.284-18.875 42.159-42.159 42.159S9.45 74.892 9.45 51.608 28.325 9.449 51.609 9.449s42.159 18.875 42.159 42.159z" data-color="2"/>
        <path d="M51.608 16.253l35.356 35.355-35.356 35.356-35.355-35.356 35.355-35.355z" fill="#000000" data-color="3"/>
        <path fill="#ffff00" d="M44.537 23.324l7.071 7.071L23.324 58.68l-7.07-7.072 28.283-28.284z" data-color="2"/>
        <path fill="#ffff00" d="M65.75 30.395l21.214 21.213L58.68 79.893 37.466 58.68l28.285-28.285z" data-color="2"/>
        <path fill="#ffff00" d="M86.434 51.079l3.536 3.535L61.685 82.9l-3.535-3.536L86.434 51.08z" data-color="2"/>
        <path fill="#ffff00" d="M68.757 27.389L89.97 48.602l-3.535 3.535-21.213-21.213 3.535-3.535z" data-color="2"/>
        <path fill="#ffff00" d="M45.067 23.853L16.783 52.137l-3.536-3.535 28.285-28.284 3.535 3.535z" data-color="2"/>
        <path fill="#ffff00" d="M16.782 51.08l7.071 7.07-3.535 3.536-7.071-7.07 3.535-3.536z" data-color="2"/>
    </g>
</svg>
